STARTFONT 2.1
COMMENT
COMMENT Converted from OpenType font "Marcellus.otf" by "otf2bdf 3.0".
COMMENT
FONT -FreeType-Gruppo-Medium-R-Normal--17-120-100-100-P-73-ISO10646-1
SIZE 12 100 100
FONTBOUNDINGBOX 20 16 -2 -3
STARTPROPERTIES 19
FOUNDRY "FreeType"
FAMILY_NAME "Gruppo"
WEIGHT_NAME "Medium"
SLANT "R"
SETWIDTH_NAME "Normal"
ADD_STYLE_NAME ""
PIXEL_SIZE 17
POINT_SIZE 120
RESOLUTION_X 100
RESOLUTION_Y 100
SPACING "P"
AVERAGE_WIDTH 73
CHARSET_REGISTRY "ISO10646"
CHARSET_ENCODING "1"
FONT_ASCENT 13
FONT_DESCENT 2
COPYRIGHT "Copyright (c) 2010 Vernon Adams (vern@newtypography.co.uk). Available under the terms of the SIL OFL v1.1 from http://scripts.sil.org/OFL"
_OTF_FONTFILE "Marcellus.otf"
_OTF_PSNAME "Gruppo"
ENDPROPERTIES
CHARS 301
STARTCHAR 0002
ENCODING 2
SWIDTH 0 0
DWIDTH 0 0
BBX 0 0 0 0
BITMAP
ENDCHAR
STARTCHAR 0009
ENCODING 9
SWIDTH 0 0
DWIDTH 0 0
BBX 0 0 0 0
BITMAP
ENDCHAR
STARTCHAR 0020
ENCODING 32
SWIDTH 240 0
DWIDTH 4 0
BBX 0 0 0 0
BITMAP
ENDCHAR
STARTCHAR 0021
ENCODING 33
SWIDTH 180 0
DWIDTH 3 0
BBX 1 12 1 0
BITMAP
80
80
80
80
80
80
80
80
80
80
80
80
ENDCHAR
STARTCHAR 0022
ENCODING 34
SWIDTH 180 0
DWIDTH 3 0
BBX 2 1 1 7
BITMAP
C0
ENDCHAR
STARTCHAR 0023
ENCODING 35
SWIDTH 360 0
DWIDTH 6 0
BBX 5 9 1 0
BITMAP
50
50
50
F8
A0
A0
F0
A0
A0
ENDCHAR
STARTCHAR 0024
ENCODING 36
SWIDTH 720 0
DWIDTH 12 0
BBX 11 11 1 0
BITMAP
0C00
7FC0
8C00
8C00
CC00
3F80
0C40
0C20
0C40
FC80
0F00
ENDCHAR
STARTCHAR 0025
ENCODING 37
SWIDTH 600 0
DWIDTH 10 0
BBX 10 9 0 0
BITMAP
0100
F200
8A00
5400
2980
0A40
1440
1280
2100
ENDCHAR
STARTCHAR 0026
ENCODING 38
SWIDTH 540 0
DWIDTH 9 0
BBX 9 9 0 0
BITMAP
3C00
4000
4400
3F00
6400
8400
8400
8400
7F80
ENDCHAR
STARTCHAR 0027
ENCODING 39
SWIDTH 120 0
DWIDTH 2 0
BBX 1 1 0 7
BITMAP
80
ENDCHAR
STARTCHAR 0028
ENCODING 40
SWIDTH 240 0
DWIDTH 4 0
BBX 3 11 1 -1
BITMAP
60
80
80
80
80
80
80
80
80
80
60
ENDCHAR
STARTCHAR 0029
ENCODING 41
SWIDTH 240 0
DWIDTH 4 0
BBX 3 11 0 -1
BITMAP
C0
40
20
20
20
20
20
20
20
40
C0
ENDCHAR
STARTCHAR 002A
ENCODING 42
SWIDTH 420 0
DWIDTH 7 0
BBX 6 5 1 3
BITMAP
50
60
FC
60
50
ENDCHAR
STARTCHAR 002B
ENCODING 43
SWIDTH 360 0
DWIDTH 6 0
BBX 3 4 2 2
BITMAP
80
80
E0
80
ENDCHAR
STARTCHAR 002C
ENCODING 44
SWIDTH 180 0
DWIDTH 3 0
BBX 1 2 1 -1
BITMAP
80
80
ENDCHAR
STARTCHAR 002D
ENCODING 45
SWIDTH 300 0
DWIDTH 5 0
BBX 3 1 1 3
BITMAP
E0
ENDCHAR
STARTCHAR 002E
ENCODING 46
SWIDTH 180 0
DWIDTH 3 0
BBX 1 1 1 0
BITMAP
80
ENDCHAR
STARTCHAR 002F
ENCODING 47
SWIDTH 300 0
DWIDTH 5 0
BBX 4 9 0 1
BITMAP
10
10
10
20
20
40
40
40
80
ENDCHAR
STARTCHAR 0030
ENCODING 48
SWIDTH 540 0
DWIDTH 9 0
BBX 7 9 1 0
BITMAP
7C
84
82
82
82
82
82
84
7C
ENDCHAR
STARTCHAR 0031
ENCODING 49
SWIDTH 240 0
DWIDTH 4 0
BBX 2 9 1 0
BITMAP
C0
40
40
40
40
40
40
40
40
ENDCHAR
STARTCHAR 0032
ENCODING 50
SWIDTH 480 0
DWIDTH 8 0
BBX 6 9 1 0
BITMAP
F8
04
04
04
08
30
C0
80
F8
ENDCHAR
STARTCHAR 0033
ENCODING 51
SWIDTH 480 0
DWIDTH 8 0
BBX 6 9 1 0
BITMAP
F8
04
04
08
78
04
04
04
F8
ENDCHAR
STARTCHAR 0034
ENCODING 52
SWIDTH 540 0
DWIDTH 9 0
BBX 7 9 1 0
BITMAP
88
88
88
88
88
88
7E
08
08
ENDCHAR
STARTCHAR 0035
ENCODING 53
SWIDTH 420 0
DWIDTH 7 0
BBX 6 9 1 0
BITMAP
F8
80
80
80
F8
08
04
08
F8
ENDCHAR
STARTCHAR 0036
ENCODING 54
SWIDTH 480 0
DWIDTH 8 0
BBX 7 9 1 0
BITMAP
7C
80
80
80
FC
82
82
82
7C
ENDCHAR
STARTCHAR 0037
ENCODING 55
SWIDTH 360 0
DWIDTH 6 0
BBX 5 9 1 0
BITMAP
F8
10
10
20
20
40
40
80
80
ENDCHAR
STARTCHAR 0038
ENCODING 56
SWIDTH 480 0
DWIDTH 8 0
BBX 7 9 1 0
BITMAP
7C
84
84
84
7C
82
82
82
7C
ENDCHAR
STARTCHAR 0039
ENCODING 57
SWIDTH 480 0
DWIDTH 8 0
BBX 7 9 1 0
BITMAP
FC
84
84
82
7E
02
04
04
F8
ENDCHAR
STARTCHAR 003A
ENCODING 58
SWIDTH 180 0
DWIDTH 3 0
BBX 1 4 1 1
BITMAP
80
00
00
80
ENDCHAR
STARTCHAR 003B
ENCODING 59
SWIDTH 180 0
DWIDTH 3 0
BBX 1 5 1 0
BITMAP
80
00
00
80
80
ENDCHAR
STARTCHAR 003C
ENCODING 60
SWIDTH 360 0
DWIDTH 6 0
BBX 4 5 1 0
BITMAP
10
60
80
60
10
ENDCHAR
STARTCHAR 003D
ENCODING 61
SWIDTH 420 0
DWIDTH 7 0
BBX 3 1 2 4
BITMAP
E0
ENDCHAR
STARTCHAR 003E
ENCODING 62
SWIDTH 360 0
DWIDTH 6 0
BBX 5 5 1 0
BITMAP
80
70
18
60
80
ENDCHAR
STARTCHAR 003F
ENCODING 63
SWIDTH 420 0
DWIDTH 7 0
BBX 7 9 0 0
BITMAP
FC
02
02
02
0C
70
40
00
20
ENDCHAR
STARTCHAR 0040
ENCODING 64
SWIDTH 660 0
DWIDTH 11 0
BBX 9 9 1 -1
BITMAP
3F00
C080
BE80
C280
C280
C280
BE80
8100
7E00
ENDCHAR
STARTCHAR 0041
ENCODING 65
SWIDTH 660 0
DWIDTH 11 0
BBX 10 9 0 0
BITMAP
0400
0A00
0A00
1100
2100
2080
5F80
4040
8040
ENDCHAR
STARTCHAR 0042
ENCODING 66
SWIDTH 660 0
DWIDTH 11 0
BBX 9 9 1 0
BITMAP
FF00
8080
8080
8080
FF00
8080
8080
8080
FF00
ENDCHAR
STARTCHAR 0043
ENCODING 67
SWIDTH 720 0
DWIDTH 12 0
BBX 10 9 1 0
BITMAP
3FC0
4000
8000
8000
8000
8000
8000
4000
3FC0
ENDCHAR
STARTCHAR 0044
ENCODING 68
SWIDTH 840 0
DWIDTH 14 0
BBX 12 9 1 0
BITMAP
FFC0
8020
8020
8010
8010
8010
8020
8020
FFC0
ENDCHAR
STARTCHAR 0045
ENCODING 69
SWIDTH 660 0
DWIDTH 11 0
BBX 8 9 1 0
BITMAP
FF
80
80
80
FF
80
80
80
FF
ENDCHAR
STARTCHAR 0046
ENCODING 70
SWIDTH 600 0
DWIDTH 10 0
BBX 9 9 1 0
BITMAP
FF80
8000
8000
8000
FF00
8000
8000
8000
8000
ENDCHAR
STARTCHAR 0047
ENCODING 71
SWIDTH 780 0
DWIDTH 13 0
BBX 11 9 1 0
BITMAP
3FC0
4000
8000
8000
83E0
8020
8020
4020
3FE0
ENDCHAR
STARTCHAR 0048
ENCODING 72
SWIDTH 660 0
DWIDTH 11 0
BBX 9 9 1 0
BITMAP
8080
8080
8080
8080
FF80
8080
8080
8080
8080
ENDCHAR
STARTCHAR 0049
ENCODING 73
SWIDTH 480 0
DWIDTH 8 0
BBX 7 9 1 0
BITMAP
FE
10
10
10
10
10
10
10
FE
ENDCHAR
STARTCHAR 004A
ENCODING 74
SWIDTH 540 0
DWIDTH 9 0
BBX 7 9 0 0
BITMAP
02
02
02
02
02
02
02
82
7C
ENDCHAR
STARTCHAR 004B
ENCODING 75
SWIDTH 600 0
DWIDTH 10 0
BBX 8 9 1 0
BITMAP
81
86
88
90
F0
88
84
82
81
ENDCHAR
STARTCHAR 004C
ENCODING 76
SWIDTH 540 0
DWIDTH 9 0
BBX 8 9 1 0
BITMAP
80
80
80
80
80
80
80
80
FF
ENDCHAR
STARTCHAR 004D
ENCODING 77
SWIDTH 840 0
DWIDTH 14 0
BBX 12 9 1 0
BITMAP
8010
C030
A030
A050
9090
8910
8910
8610
8010
ENDCHAR
STARTCHAR 004E
ENCODING 78
SWIDTH 720 0
DWIDTH 12 0
BBX 10 9 1 0
BITMAP
8040
E040
9040
8840
8440
8240
8140
80C0
8040
ENDCHAR
STARTCHAR 004F
ENCODING 79
SWIDTH 840 0
DWIDTH 14 0
BBX 12 9 1 0
BITMAP
3FC0
4020
8010
8010
8010
8010
8010
4020
3FC0
ENDCHAR
STARTCHAR 0050
ENCODING 80
SWIDTH 600 0
DWIDTH 10 0
BBX 8 9 1 0
BITMAP
FE
81
81
81
81
82
FC
80
80
ENDCHAR
STARTCHAR 0051
ENCODING 81
SWIDTH 840 0
DWIDTH 14 0
BBX 12 11 1 -2
BITMAP
3FC0
4020
8010
8010
8010
8010
8010
4020
32C0
0D00
0100
ENDCHAR
STARTCHAR 0052
ENCODING 82
SWIDTH 600 0
DWIDTH 10 0
BBX 8 9 1 0
BITMAP
FE
81
81
81
83
FC
84
82
81
ENDCHAR
STARTCHAR 0053
ENCODING 83
SWIDTH 780 0
DWIDTH 13 0
BBX 11 9 1 0
BITMAP
7FC0
8000
8000
C000
3F80
0040
0020
0040
FF80
ENDCHAR
STARTCHAR 0054
ENCODING 84
SWIDTH 660 0
DWIDTH 11 0
BBX 9 9 1 0
BITMAP
FF80
0800
0800
0800
0800
0800
0800
0800
0800
ENDCHAR
STARTCHAR 0055
ENCODING 85
SWIDTH 780 0
DWIDTH 13 0
BBX 11 9 1 0
BITMAP
8020
8020
8020
8020
8020
8020
8040
4040
3F80
ENDCHAR
STARTCHAR 0056
ENCODING 86
SWIDTH 720 0
DWIDTH 12 0
BBX 11 9 0 0
BITMAP
8020
4040
4040
2080
1080
1100
0900
0A00
0400
ENDCHAR
STARTCHAR 0057
ENCODING 87
SWIDTH 900 0
DWIDTH 15 0
BBX 13 9 1 0
BITMAP
8208
8210
8610
4910
4920
48A0
30A0
30C0
1040
ENDCHAR
STARTCHAR 0058
ENCODING 88
SWIDTH 720 0
DWIDTH 12 0
BBX 9 9 1 0
BITMAP
8080
4100
2200
1400
0800
1400
2200
4100
8080
ENDCHAR
STARTCHAR 0059
ENCODING 89
SWIDTH 540 0
DWIDTH 9 0
BBX 9 9 0 0
BITMAP
8080
4100
2200
1400
0C00
0800
0800
0800
0800
ENDCHAR
STARTCHAR 005A
ENCODING 90
SWIDTH 660 0
DWIDTH 11 0
BBX 10 9 0 0
BITMAP
7FC0
0080
0100
0200
0400
0800
1000
6000
FFC0
ENDCHAR
STARTCHAR 005B
ENCODING 91
SWIDTH 180 0
DWIDTH 3 0
BBX 2 13 1 -2
BITMAP
C0
80
80
80
80
80
80
80
80
80
80
80
C0
ENDCHAR
STARTCHAR 005C
ENCODING 92
SWIDTH 300 0
DWIDTH 5 0
BBX 5 10 0 -1
BITMAP
80
80
40
40
20
20
20
10
10
08
ENDCHAR
STARTCHAR 005D
ENCODING 93
SWIDTH 180 0
DWIDTH 3 0
BBX 2 13 0 -2
BITMAP
C0
40
40
40
40
40
40
40
40
40
40
40
C0
ENDCHAR
STARTCHAR 005E
ENCODING 94
SWIDTH 300 0
DWIDTH 5 0
BBX 4 2 0 8
BITMAP
70
90
ENDCHAR
STARTCHAR 005F
ENCODING 95
SWIDTH 720 0
DWIDTH 12 0
BBX 10 1 1 1
BITMAP
FFC0
ENDCHAR
STARTCHAR 0060
ENCODING 96
SWIDTH 180 0
DWIDTH 3 0
BBX 3 3 0 8
BITMAP
80
40
20
ENDCHAR
STARTCHAR 0061
ENCODING 97
SWIDTH 600 0
DWIDTH 10 0
BBX 9 8 0 0
BITMAP
3C80
4380
8080
8080
8080
8080
4180
3E80
ENDCHAR
STARTCHAR 0062
ENCODING 98
SWIDTH 600 0
DWIDTH 10 0
BBX 8 9 1 0
BITMAP
80
80
80
FE
81
81
81
81
FE
ENDCHAR
STARTCHAR 0063
ENCODING 99
SWIDTH 540 0
DWIDTH 9 0
BBX 7 6 1 0
BITMAP
7E
80
80
80
80
7E
ENDCHAR
STARTCHAR 0064
ENCODING 100
SWIDTH 600 0
DWIDTH 10 0
BBX 8 9 1 0
BITMAP
01
01
01
7F
81
81
81
81
7F
ENDCHAR
STARTCHAR 0065
ENCODING 101
SWIDTH 840 0
DWIDTH 14 0
BBX 7 8 4 0
BITMAP
18
64
84
88
90
A0
42
3C
ENDCHAR
STARTCHAR 0066
ENCODING 102
SWIDTH 360 0
DWIDTH 6 0
BBX 5 9 1 0
BITMAP
78
80
80
E0
80
80
80
80
80
ENDCHAR
STARTCHAR 0067
ENCODING 103
SWIDTH 600 0
DWIDTH 10 0
BBX 8 9 1 -3
BITMAP
7F
81
81
81
81
67
19
02
7C
ENDCHAR
STARTCHAR 0068
ENCODING 104
SWIDTH 600 0
DWIDTH 10 0
BBX 8 9 1 0
BITMAP
80
80
80
FE
82
81
81
81
81
ENDCHAR
STARTCHAR 0069
ENCODING 105
SWIDTH 180 0
DWIDTH 3 0
BBX 1 6 1 3
BITMAP
80
80
80
80
80
80
ENDCHAR
STARTCHAR 006A
ENCODING 106
SWIDTH 240 0
DWIDTH 4 0
BBX 3 11 0 -2
BITMAP
20
00
00
20
20
20
20
20
20
20
C0
ENDCHAR
STARTCHAR 006B
ENCODING 107
SWIDTH 480 0
DWIDTH 8 0
BBX 6 9 1 0
BITMAP
80
80
80
84
98
E0
90
88
84
ENDCHAR
STARTCHAR 006C
ENCODING 108
SWIDTH 180 0
DWIDTH 3 0
BBX 1 9 1 0
BITMAP
80
80
80
80
80
80
80
80
80
ENDCHAR
STARTCHAR 006D
ENCODING 109
SWIDTH 780 0
DWIDTH 13 0
BBX 11 6 1 0
BITMAP
FFE0
8420
8420
8420
8420
8420
ENDCHAR
STARTCHAR 006E
ENCODING 110
SWIDTH 600 0
DWIDTH 10 0
BBX 8 6 1 0
BITMAP
FE
82
82
81
81
82
ENDCHAR
STARTCHAR 006F
ENCODING 111
SWIDTH 600 0
DWIDTH 10 0
BBX 8 6 1 0
BITMAP
7E
81
81
81
81
7E
ENDCHAR
STARTCHAR 0070
ENCODING 112
SWIDTH 600 0
DWIDTH 10 0
BBX 8 9 1 -3
BITMAP
FE
81
81
81
81
E2
9C
80
80
ENDCHAR
STARTCHAR 0071
ENCODING 113
SWIDTH 600 0
DWIDTH 10 0
BBX 8 9 1 -3
BITMAP
7F
81
81
81
81
47
39
01
01
ENDCHAR
STARTCHAR 0072
ENCODING 114
SWIDTH 420 0
DWIDTH 7 0
BBX 5 6 1 0
BITMAP
F8
80
80
80
80
80
ENDCHAR
STARTCHAR 0073
ENCODING 115
SWIDTH 600 0
DWIDTH 10 0
BBX 8 6 1 0
BITMAP
FE
80
C0
3E
01
7E
ENDCHAR
STARTCHAR 0074
ENCODING 116
SWIDTH 360 0
DWIDTH 6 0
BBX 5 8 1 1
BITMAP
80
80
F0
80
80
80
80
78
ENDCHAR
STARTCHAR 0075
ENCODING 117
SWIDTH 600 0
DWIDTH 10 0
BBX 7 6 1 0
BITMAP
82
82
82
82
82
7E
ENDCHAR
STARTCHAR 0076
ENCODING 118
SWIDTH 480 0
DWIDTH 8 0
BBX 8 6 0 0
BITMAP
81
42
24
24
18
08
ENDCHAR
STARTCHAR 0077
ENCODING 119
SWIDTH 660 0
DWIDTH 11 0
BBX 9 6 1 0
BITMAP
8880
9880
9500
6500
6500
2200
ENDCHAR
STARTCHAR 0078
ENCODING 120
SWIDTH 540 0
DWIDTH 9 0
BBX 7 6 1 0
BITMAP
82
64
18
28
44
82
ENDCHAR
STARTCHAR 0079
ENCODING 121
SWIDTH 600 0
DWIDTH 10 0
BBX 7 9 1 -3
BITMAP
82
82
82
82
82
46
3A
02
7C
ENDCHAR
STARTCHAR 007A
ENCODING 122
SWIDTH 480 0
DWIDTH 8 0
BBX 6 6 1 0
BITMAP
FC
08
10
20
40
FC
ENDCHAR
STARTCHAR 007B
ENCODING 123
SWIDTH 300 0
DWIDTH 5 0
BBX 4 12 1 0
BITMAP
30
40
40
40
40
80
80
40
40
40
40
30
ENDCHAR
STARTCHAR 007C
ENCODING 124
SWIDTH 120 0
DWIDTH 2 0
BBX 1 11 1 0
BITMAP
80
80
80
80
80
80
80
80
80
80
80
ENDCHAR
STARTCHAR 007D
ENCODING 125
SWIDTH 300 0
DWIDTH 5 0
BBX 5 12 0 0
BITMAP
C0
20
20
20
20
10
28
20
20
20
40
C0
ENDCHAR
STARTCHAR 007E
ENCODING 126
SWIDTH 480 0
DWIDTH 8 0
BBX 6 3 1 3
BITMAP
40
A4
18
ENDCHAR
STARTCHAR 00A1
ENCODING 161
SWIDTH 180 0
DWIDTH 3 0
BBX 1 12 1 -3
BITMAP
80
80
80
80
80
80
80
80
80
80
80
80
ENDCHAR
STARTCHAR 00A2
ENCODING 162
SWIDTH 540 0
DWIDTH 9 0
BBX 7 8 1 0
BITMAP
10
7E
90
90
90
90
76
18
ENDCHAR
STARTCHAR 00A3
ENCODING 163
SWIDTH 480 0
DWIDTH 8 0
BBX 7 9 0 0
BITMAP
1E
20
20
20
7C
10
10
70
EE
ENDCHAR
STARTCHAR 00A4
ENCODING 164
SWIDTH 480 0
DWIDTH 8 0
BBX 6 6 1 3
BITMAP
FC
84
84
84
84
FC
ENDCHAR
STARTCHAR 00A5
ENCODING 165
SWIDTH 540 0
DWIDTH 9 0
BBX 9 9 0 0
BITMAP
8080
4100
2200
1400
0C00
1800
0800
0800
0800
ENDCHAR
STARTCHAR 00A6
ENCODING 166
SWIDTH 180 0
DWIDTH 3 0
BBX 1 11 1 0
BITMAP
80
80
80
80
80
00
80
80
80
80
80
ENDCHAR
STARTCHAR 00A7
ENCODING 167
SWIDTH 540 0
DWIDTH 9 0
BBX 7 9 1 0
BITMAP
FE
80
C0
BE
82
C6
3A
02
FE
ENDCHAR
STARTCHAR 00A8
ENCODING 168
SWIDTH 360 0
DWIDTH 6 0
BBX 1 1 4 8
BITMAP
80
ENDCHAR
STARTCHAR 00A9
ENCODING 169
SWIDTH 600 0
DWIDTH 10 0
BBX 8 7 1 1
BITMAP
7C
BE
C1
C1
C1
AE
7C
ENDCHAR
STARTCHAR 00AA
ENCODING 170
SWIDTH 600 0
DWIDTH 10 0
BBX 8 7 1 2
BITMAP
7C
02
3A
C5
81
87
7C
ENDCHAR
STARTCHAR 00AB
ENCODING 171
SWIDTH 300 0
DWIDTH 5 0
BBX 5 5 0 0
BITMAP
30
60
A0
50
28
ENDCHAR
STARTCHAR 00AC
ENCODING 172
SWIDTH 360 0
DWIDTH 6 0
BBX 3 1 2 2
BITMAP
E0
ENDCHAR
STARTCHAR 00AD
ENCODING 173
SWIDTH 420 0
DWIDTH 7 0
BBX 3 1 2 3
BITMAP
E0
ENDCHAR
STARTCHAR 00AE
ENCODING 174
SWIDTH 600 0
DWIDTH 10 0
BBX 8 7 1 1
BITMAP
7C
BE
A5
A5
B9
A6
7C
ENDCHAR
STARTCHAR 00B0
ENCODING 176
SWIDTH 180 0
DWIDTH 3 0
BBX 1 2 1 7
BITMAP
80
80
ENDCHAR
STARTCHAR 00B1
ENCODING 177
SWIDTH 420 0
DWIDTH 7 0
BBX 4 6 2 0
BITMAP
40
40
E0
40
00
F0
ENDCHAR
STARTCHAR 00B2
ENCODING 178
SWIDTH 480 0
DWIDTH 8 0
BBX 6 6 1 3
BITMAP
78
04
08
08
70
F8
ENDCHAR
STARTCHAR 00B3
ENCODING 179
SWIDTH 480 0
DWIDTH 8 0
BBX 4 7 2 2
BITMAP
F0
10
10
60
10
10
E0
ENDCHAR
STARTCHAR 00B4
ENCODING 180
SWIDTH 180 0
DWIDTH 3 0
BBX 3 2 0 8
BITMAP
60
80
ENDCHAR
STARTCHAR 00B5
ENCODING 181
SWIDTH 600 0
DWIDTH 10 0
BBX 7 6 1 0
BITMAP
82
82
82
82
82
7E
ENDCHAR
STARTCHAR 00B6
ENCODING 182
SWIDTH 420 0
DWIDTH 7 0
BBX 6 9 0 0
BITMAP
7C
74
F4
74
34
14
14
14
14
ENDCHAR
STARTCHAR 00B7
ENCODING 183
SWIDTH 0 0
DWIDTH 0 0
BBX 0 0 0 0
BITMAP
ENDCHAR
STARTCHAR 00B8
ENCODING 184
SWIDTH 120 0
DWIDTH 2 0
BBX 2 3 0 -3
BITMAP
40
80
80
ENDCHAR
STARTCHAR 00B9
ENCODING 185
SWIDTH 240 0
DWIDTH 4 0
BBX 3 6 0 3
BITMAP
E0
20
20
20
20
20
ENDCHAR
STARTCHAR 00BA
ENCODING 186
SWIDTH 540 0
DWIDTH 9 0
BBX 8 7 1 2
BITMAP
7E
81
81
81
81
42
3C
ENDCHAR
STARTCHAR 00BB
ENCODING 187
SWIDTH 300 0
DWIDTH 5 0
BBX 4 5 1 0
BITMAP
C0
60
50
A0
40
ENDCHAR
STARTCHAR 00BC
ENCODING 188
SWIDTH 780 0
DWIDTH 13 0
BBX 13 10 0 0
BITMAP
0200
E200
2400
2400
2A20
2A20
2A20
11F8
1020
1020
ENDCHAR
STARTCHAR 00BD
ENCODING 189
SWIDTH 780 0
DWIDTH 13 0
BBX 12 9 0 1
BITMAP
E200
2400
2400
25F0
2810
2810
0860
1180
11F0
ENDCHAR
STARTCHAR 00BE
ENCODING 190
SWIDTH 1020 0
DWIDTH 17 0
BBX 15 9 1 1
BITMAP
F080
1080
1100
3148
0A48
0A48
F248
043E
0408
ENDCHAR
STARTCHAR 00BF
ENCODING 191
SWIDTH 420 0
DWIDTH 7 0
BBX 7 7 0 2
BITMAP
08
08
70
80
80
80
7E
ENDCHAR
STARTCHAR 00C0
ENCODING 192
SWIDTH 660 0
DWIDTH 11 0
BBX 10 13 0 0
BITMAP
0800
0400
0200
0000
0400
0A00
0A00
1100
2100
2080
5F80
4040
8040
ENDCHAR
STARTCHAR 00C1
ENCODING 193
SWIDTH 660 0
DWIDTH 11 0
BBX 10 13 0 0
BITMAP
0200
0400
0000
0000
0400
0A00
0A00
1100
2100
2080
5F80
4040
8040
ENDCHAR
STARTCHAR 00C2
ENCODING 194
SWIDTH 660 0
DWIDTH 11 0
BBX 10 12 0 0
BITMAP
0C00
0A00
0000
0400
0A00
0A00
1100
2100
2080
5F80
4040
8040
ENDCHAR
STARTCHAR 00C3
ENCODING 195
SWIDTH 660 0
DWIDTH 11 0
BBX 10 11 0 0
BITMAP
0600
0000
0400
0A00
0A00
1100
2100
2080
5F80
4040
8040
ENDCHAR
STARTCHAR 00C4
ENCODING 196
SWIDTH 660 0
DWIDTH 11 0
BBX 10 9 0 2
BITMAP
0400
0A00
0A00
1100
2100
2080
5F80
4040
8040
ENDCHAR
STARTCHAR 00C5
ENCODING 197
SWIDTH 660 0
DWIDTH 11 0
BBX 10 12 0 0
BITMAP
0400
0C00
0000
0400
0A00
0A00
1100
2100
2080
5F80
4040
8040
ENDCHAR
STARTCHAR 00C6
ENCODING 198
SWIDTH 720 0
DWIDTH 12 0
BBX 11 9 0 0
BITMAP
07E0
0C00
1400
1400
27E0
2400
5C00
4400
87E0
ENDCHAR
STARTCHAR 00C7
ENCODING 199
SWIDTH 720 0
DWIDTH 12 0
BBX 10 12 1 -3
BITMAP
3FC0
4000
8000
8000
8000
8000
8000
4000
30C0
0F00
0800
0800
ENDCHAR
STARTCHAR 00C8
ENCODING 200
SWIDTH 600 0
DWIDTH 10 0
BBX 8 13 1 0
BITMAP
10
08
04
00
FF
80
80
80
FF
80
80
80
FF
ENDCHAR
STARTCHAR 00C9
ENCODING 201
SWIDTH 600 0
DWIDTH 10 0
BBX 8 13 1 0
BITMAP
04
08
00
00
FF
80
80
80
FF
80
80
80
FF
ENDCHAR
STARTCHAR 00CA
ENCODING 202
SWIDTH 600 0
DWIDTH 10 0
BBX 8 12 1 0
BITMAP
18
14
00
FF
80
80
80
FF
80
80
80
FF
ENDCHAR
STARTCHAR 00CB
ENCODING 203
SWIDTH 660 0
DWIDTH 11 0
BBX 8 9 1 2
BITMAP
FF
80
80
80
FF
80
80
80
FF
ENDCHAR
STARTCHAR 00CC
ENCODING 204
SWIDTH 480 0
DWIDTH 8 0
BBX 7 13 1 0
BITMAP
20
10
08
00
FE
10
10
10
10
10
10
10
FE
ENDCHAR
STARTCHAR 00CD
ENCODING 205
SWIDTH 480 0
DWIDTH 8 0
BBX 7 13 1 0
BITMAP
10
20
00
00
FE
10
10
10
10
10
10
10
FE
ENDCHAR
STARTCHAR 00CE
ENCODING 206
SWIDTH 480 0
DWIDTH 8 0
BBX 7 12 1 0
BITMAP
30
08
00
FE
10
10
10
10
10
10
10
FE
ENDCHAR
STARTCHAR 00CF
ENCODING 207
SWIDTH 480 0
DWIDTH 8 0
BBX 7 9 1 2
BITMAP
FE
10
10
10
10
10
10
10
FE
ENDCHAR
STARTCHAR 00D0
ENCODING 208
SWIDTH 780 0
DWIDTH 13 0
BBX 12 9 0 0
BITMAP
7FC0
4030
4010
4010
F010
4010
4010
4010
7FE0
ENDCHAR
STARTCHAR 00D1
ENCODING 209
SWIDTH 720 0
DWIDTH 12 0
BBX 10 11 1 0
BITMAP
1E00
0000
8040
E040
9040
8840
8440
8240
8140
80C0
8040
ENDCHAR
STARTCHAR 00D2
ENCODING 210
SWIDTH 840 0
DWIDTH 14 0
BBX 12 13 1 0
BITMAP
0400
0200
0000
0000
3FC0
4020
8010
8010
8010
8010
8010
4020
3FC0
ENDCHAR
STARTCHAR 00D3
ENCODING 211
SWIDTH 840 0
DWIDTH 14 0
BBX 12 13 1 0
BITMAP
0200
0400
0000
0000
3FC0
4020
8010
8010
8010
8010
8010
4020
3FC0
ENDCHAR
STARTCHAR 00D4
ENCODING 212
SWIDTH 840 0
DWIDTH 14 0
BBX 12 12 1 0
BITMAP
0600
0000
0000
3FC0
4020
8010
8010
8010
8010
8010
4020
3FC0
ENDCHAR
STARTCHAR 00D5
ENCODING 213
SWIDTH 840 0
DWIDTH 14 0
BBX 12 11 1 0
BITMAP
0F00
0000
3FC0
4020
8010
8010
8010
8010
8010
4020
3FC0
ENDCHAR
STARTCHAR 00D6
ENCODING 214
SWIDTH 840 0
DWIDTH 14 0
BBX 12 9 1 2
BITMAP
3FC0
4020
8010
8010
8010
8010
8010
4020
3FC0
ENDCHAR
STARTCHAR 00D7
ENCODING 215
SWIDTH 300 0
DWIDTH 5 0
BBX 4 4 1 2
BITMAP
10
E0
60
90
ENDCHAR
STARTCHAR 00D8
ENCODING 216
SWIDTH 840 0
DWIDTH 14 0
BBX 12 11 1 -1
BITMAP
0100
3FC0
4220
8210
8210
8410
8410
8410
4820
38C0
1700
ENDCHAR
STARTCHAR 00D9
ENCODING 217
SWIDTH 780 0
DWIDTH 13 0
BBX 11 13 1 0
BITMAP
0800
0400
0200
0000
8020
8020
8020
8020
8020
8020
8040
4040
3F80
ENDCHAR
STARTCHAR 00DA
ENCODING 218
SWIDTH 780 0
DWIDTH 13 0
BBX 11 13 1 0
BITMAP
0200
0400
0000
0000
8020
8020
8020
8020
8020
8020
8040
4040
3F80
ENDCHAR
STARTCHAR 00DB
ENCODING 219
SWIDTH 780 0
DWIDTH 13 0
BBX 11 12 1 0
BITMAP
0C00
0A00
0000
8020
8020
8020
8020
8020
8020
8040
4040
3F80
ENDCHAR
STARTCHAR 00DC
ENCODING 220
SWIDTH 780 0
DWIDTH 13 0
BBX 11 9 1 2
BITMAP
8020
8020
8020
8020
8020
8020
8040
4040
3F80
ENDCHAR
STARTCHAR 00DD
ENCODING 221
SWIDTH 540 0
DWIDTH 9 0
BBX 9 13 0 0
BITMAP
0400
0800
0000
0000
8080
4100
2200
1400
0C00
0800
0800
0800
0800
ENDCHAR
STARTCHAR 00DE
ENCODING 222
SWIDTH 480 0
DWIDTH 8 0
BBX 7 9 1 0
BITMAP
80
80
FC
82
82
82
FC
80
80
ENDCHAR
STARTCHAR 00DF
ENCODING 223
SWIDTH 600 0
DWIDTH 10 0
BBX 9 10 1 -1
BITMAP
7E00
8200
8200
8C00
9E00
8100
8080
8100
8F00
8000
ENDCHAR
STARTCHAR 00E0
ENCODING 224
SWIDTH 600 0
DWIDTH 10 0
BBX 9 11 0 0
BITMAP
1000
0800
0400
3C80
4380
8080
8080
8080
8080
4180
3E80
ENDCHAR
STARTCHAR 00E1
ENCODING 225
SWIDTH 600 0
DWIDTH 10 0
BBX 9 11 0 0
BITMAP
0400
0800
1000
3C80
4380
8080
8080
8080
8080
4180
3E80
ENDCHAR
STARTCHAR 00E2
ENCODING 226
SWIDTH 600 0
DWIDTH 10 0
BBX 9 11 0 0
BITMAP
0800
1400
0000
3C80
4380
8080
8080
8080
8080
4180
3E80
ENDCHAR
STARTCHAR 00E3
ENCODING 227
SWIDTH 600 0
DWIDTH 10 0
BBX 9 10 0 0
BITMAP
1A00
0400
3C80
4380
8080
8080
8080
8080
4180
3E80
ENDCHAR
STARTCHAR 00E4
ENCODING 228
SWIDTH 600 0
DWIDTH 10 0
BBX 9 10 0 0
BITMAP
0200
0000
3C80
4380
8080
8080
8080
8080
4180
3E80
ENDCHAR
STARTCHAR 00E5
ENCODING 229
SWIDTH 600 0
DWIDTH 10 0
BBX 9 10 0 0
BITMAP
1800
0800
3480
4380
8080
8080
8080
8080
4180
3E80
ENDCHAR
STARTCHAR 00E6
ENCODING 230
SWIDTH 840 0
DWIDTH 14 0
BBX 14 6 0 0
BITMAP
7FF8
0104
3DFC
C300
8100
7EF8
ENDCHAR
STARTCHAR 00E7
ENCODING 231
SWIDTH 540 0
DWIDTH 9 0
BBX 7 8 1 -3
BITMAP
7E
80
80
80
80
66
18
10
ENDCHAR
STARTCHAR 00E8
ENCODING 232
SWIDTH 840 0
DWIDTH 14 0
BBX 7 10 4 1
BITMAP
20
10
18
64
84
88
90
A0
42
3C
ENDCHAR
STARTCHAR 00E9
ENCODING 233
SWIDTH 840 0
DWIDTH 14 0
BBX 7 11 4 0
BITMAP
04
08
10
18
64
84
88
90
A0
42
3C
ENDCHAR
STARTCHAR 00EA
ENCODING 234
SWIDTH 840 0
DWIDTH 14 0
BBX 7 10 4 0
BITMAP
30
28
18
64
84
88
90
A0
42
3C
ENDCHAR
STARTCHAR 00EB
ENCODING 235
SWIDTH 840 0
DWIDTH 14 0
BBX 7 9 4 0
BITMAP
44
18
64
84
88
90
A0
42
3C
ENDCHAR
STARTCHAR 00EC
ENCODING 236
SWIDTH 180 0
DWIDTH 3 0
BBX 3 11 0 0
BITMAP
80
80
40
20
00
40
40
40
40
40
40
ENDCHAR
STARTCHAR 00ED
ENCODING 237
SWIDTH 180 0
DWIDTH 3 0
BBX 2 10 0 0
BITMAP
40
80
00
00
40
40
40
40
40
40
ENDCHAR
STARTCHAR 00EE
ENCODING 238
SWIDTH 180 0
DWIDTH 3 0
BBX 3 9 0 0
BITMAP
C0
20
00
40
40
40
40
40
40
ENDCHAR
STARTCHAR 00EF
ENCODING 239
SWIDTH 180 0
DWIDTH 3 0
BBX 3 9 -1 0
BITMAP
80
00
00
20
20
20
20
20
20
ENDCHAR
STARTCHAR 00F0
ENCODING 240
SWIDTH 540 0
DWIDTH 9 0
BBX 8 9 1 0
BITMAP
FC
07
02
02
7E
82
82
82
7C
ENDCHAR
STARTCHAR 00F1
ENCODING 241
SWIDTH 600 0
DWIDTH 10 0
BBX 8 9 1 0
BITMAP
30
2C
00
FE
82
82
81
81
82
ENDCHAR
STARTCHAR 00F2
ENCODING 242
SWIDTH 600 0
DWIDTH 10 0
BBX 8 10 1 1
BITMAP
10
08
00
00
7E
81
81
81
81
7E
ENDCHAR
STARTCHAR 00F3
ENCODING 243
SWIDTH 600 0
DWIDTH 10 0
BBX 8 10 1 0
BITMAP
08
10
00
00
7E
81
81
81
81
7E
ENDCHAR
STARTCHAR 00F4
ENCODING 244
SWIDTH 600 0
DWIDTH 10 0
BBX 8 9 1 0
BITMAP
18
04
00
7E
81
81
81
81
7E
ENDCHAR
STARTCHAR 00F5
ENCODING 245
SWIDTH 600 0
DWIDTH 10 0
BBX 8 9 1 0
BITMAP
34
2C
00
7E
81
81
81
81
7E
ENDCHAR
STARTCHAR 00F6
ENCODING 246
SWIDTH 600 0
DWIDTH 10 0
BBX 8 9 1 0
BITMAP
24
00
00
7E
81
81
81
81
7E
ENDCHAR
STARTCHAR 00F7
ENCODING 247
SWIDTH 360 0
DWIDTH 6 0
BBX 3 4 1 2
BITMAP
40
00
E0
40
ENDCHAR
STARTCHAR 00F8
ENCODING 248
SWIDTH 600 0
DWIDTH 10 0
BBX 8 10 1 -2
BITMAP
04
04
7A
89
89
91
91
66
38
20
ENDCHAR
STARTCHAR 00F9
ENCODING 249
SWIDTH 600 0
DWIDTH 10 0
BBX 7 10 1 1
BITMAP
10
08
00
00
82
82
82
82
82
7E
ENDCHAR
STARTCHAR 00FA
ENCODING 250
SWIDTH 600 0
DWIDTH 10 0
BBX 7 10 1 0
BITMAP
08
30
00
00
82
82
82
82
82
7E
ENDCHAR
STARTCHAR 00FB
ENCODING 251
SWIDTH 600 0
DWIDTH 10 0
BBX 7 9 1 0
BITMAP
38
20
00
82
82
82
82
82
7E
ENDCHAR
STARTCHAR 00FC
ENCODING 252
SWIDTH 600 0
DWIDTH 10 0
BBX 7 9 1 0
BITMAP
04
00
00
82
82
82
82
82
7E
ENDCHAR
STARTCHAR 00FD
ENCODING 253
SWIDTH 600 0
DWIDTH 10 0
BBX 7 13 1 -3
BITMAP
08
10
00
00
82
82
82
82
82
46
3A
02
7C
ENDCHAR
STARTCHAR 00FE
ENCODING 254
SWIDTH 600 0
DWIDTH 10 0
BBX 8 11 1 -3
BITMAP
80
80
80
FE
81
81
81
82
E6
98
80
ENDCHAR
STARTCHAR 00FF
ENCODING 255
SWIDTH 600 0
DWIDTH 10 0
BBX 7 12 1 -3
BITMAP
04
00
00
82
82
82
82
82
46
3A
02
7C
ENDCHAR
STARTCHAR 0100
ENCODING 256
SWIDTH 660 0
DWIDTH 11 0
BBX 10 9 0 0
BITMAP
0400
0A00
0A00
1100
2100
2080
5F80
4040
8040
ENDCHAR
STARTCHAR 0101
ENCODING 257
SWIDTH 600 0
DWIDTH 10 0
BBX 9 8 0 0
BITMAP
3C80
4380
8080
8080
8080
8080
4180
3E80
ENDCHAR
STARTCHAR 0102
ENCODING 258
SWIDTH 660 0
DWIDTH 11 0
BBX 10 12 0 0
BITMAP
0A00
0400
0000
0400
0A00
0A00
1100
2100
2080
5F80
4040
8040
ENDCHAR
STARTCHAR 0103
ENCODING 259
SWIDTH 600 0
DWIDTH 10 0
BBX 9 10 0 0
BITMAP
1000
1400
3C80
4380
8080
8080
8080
8080
4180
3E80
ENDCHAR
STARTCHAR 0104
ENCODING 260
SWIDTH 660 0
DWIDTH 11 0
BBX 10 11 0 -2
BITMAP
0400
0A00
0A00
1100
2100
2080
5F80
4040
8040
0000
0040
ENDCHAR
STARTCHAR 0105
ENCODING 261
SWIDTH 600 0
DWIDTH 10 0
BBX 9 10 0 -2
BITMAP
3C80
4380
8080
8080
8080
8080
4180
2280
1C00
0100
ENDCHAR
STARTCHAR 0106
ENCODING 262
SWIDTH 720 0
DWIDTH 12 0
BBX 10 13 1 0
BITMAP
0400
0800
0000
0000
3FC0
4000
8000
8000
8000
8000
8000
4000
3FC0
ENDCHAR
STARTCHAR 0107
ENCODING 263
SWIDTH 540 0
DWIDTH 9 0
BBX 7 10 1 0
BITMAP
18
20
00
00
7E
80
80
80
80
7E
ENDCHAR
STARTCHAR 010C
ENCODING 268
SWIDTH 720 0
DWIDTH 12 0
BBX 10 13 1 0
BITMAP
0200
0C00
0000
0000
3FC0
4000
8000
8000
8000
8000
8000
4000
3FC0
ENDCHAR
STARTCHAR 010D
ENCODING 269
SWIDTH 540 0
DWIDTH 9 0
BBX 7 10 1 0
BITMAP
28
10
00
00
7E
80
80
80
80
7E
ENDCHAR
STARTCHAR 0112
ENCODING 274
SWIDTH 660 0
DWIDTH 11 0
BBX 8 11 1 0
BITMAP
1C
00
FF
80
80
80
FF
80
80
80
FF
ENDCHAR
STARTCHAR 0113
ENCODING 275
SWIDTH 840 0
DWIDTH 14 0
BBX 7 9 4 0
BITMAP
38
18
64
84
88
90
A0
42
3C
ENDCHAR
STARTCHAR 0118
ENCODING 280
SWIDTH 660 0
DWIDTH 11 0
BBX 8 11 1 -2
BITMAP
FF
80
80
80
FF
80
80
80
FF
00
01
ENDCHAR
STARTCHAR 0119
ENCODING 281
SWIDTH 840 0
DWIDTH 14 0
BBX 9 10 4 -2
BITMAP
1800
6400
8400
8800
9000
A000
4200
3C00
0100
0180
ENDCHAR
STARTCHAR 0127
ENCODING 295
SWIDTH 540 0
DWIDTH 9 0
BBX 8 9 0 0
BITMAP
80
F0
80
BF
41
81
81
81
81
ENDCHAR
STARTCHAR 0128
ENCODING 296
SWIDTH 480 0
DWIDTH 8 0
BBX 7 11 1 0
BITMAP
78
00
FE
10
10
10
10
10
10
10
FE
ENDCHAR
STARTCHAR 0129
ENCODING 297
SWIDTH 180 0
DWIDTH 3 0
BBX 4 9 -1 0
BITMAP
40
B0
00
20
20
20
20
20
20
ENDCHAR
STARTCHAR 012A
ENCODING 298
SWIDTH 480 0
DWIDTH 8 0
BBX 7 11 1 0
BITMAP
38
00
FE
10
10
10
10
10
10
10
FE
ENDCHAR
STARTCHAR 012B
ENCODING 299
SWIDTH 180 0
DWIDTH 3 0
BBX 2 8 1 0
BITMAP
C0
00
80
80
80
80
80
80
ENDCHAR
STARTCHAR 012E
ENCODING 302
SWIDTH 480 0
DWIDTH 8 0
BBX 7 11 1 -2
BITMAP
FE
10
10
10
10
10
10
10
FE
00
20
ENDCHAR
STARTCHAR 012F
ENCODING 303
SWIDTH 180 0
DWIDTH 3 0
BBX 1 8 1 1
BITMAP
80
80
80
80
80
80
80
80
ENDCHAR
STARTCHAR 0131
ENCODING 305
SWIDTH 180 0
DWIDTH 3 0
BBX 1 6 1 0
BITMAP
80
80
80
80
80
80
ENDCHAR
STARTCHAR 0132
ENCODING 306
SWIDTH 1020 0
DWIDTH 17 0
BBX 15 9 1 0
BITMAP
FE02
1002
1002
1002
1002
1002
1002
1104
FEF8
ENDCHAR
STARTCHAR 0133
ENCODING 307
SWIDTH 420 0
DWIDTH 7 0
BBX 5 8 1 1
BITMAP
88
88
88
88
88
88
08
18
ENDCHAR
STARTCHAR 0134
ENCODING 308
SWIDTH 540 0
DWIDTH 9 0
BBX 8 12 0 0
BITMAP
03
00
00
02
02
02
02
02
02
02
82
7C
ENDCHAR
STARTCHAR 0135
ENCODING 309
SWIDTH 240 0
DWIDTH 4 0
BBX 4 11 0 -2
BITMAP
60
50
00
20
20
20
20
20
20
20
C0
ENDCHAR
STARTCHAR 0137
ENCODING 311
SWIDTH 480 0
DWIDTH 8 0
BBX 6 11 1 -3
BITMAP
80
80
80
84
98
E0
90
88
84
00
10
ENDCHAR
STARTCHAR 0138
ENCODING 312
SWIDTH 480 0
DWIDTH 8 0
BBX 6 6 1 0
BITMAP
84
98
E0
90
88
84
ENDCHAR
STARTCHAR 013F
ENCODING 319
SWIDTH 540 0
DWIDTH 9 0
BBX 8 9 1 0
BITMAP
80
80
80
80
80
80
80
80
FF
ENDCHAR
STARTCHAR 0140
ENCODING 320
SWIDTH 360 0
DWIDTH 6 0
BBX 1 9 1 0
BITMAP
80
80
80
80
80
80
80
80
80
ENDCHAR
STARTCHAR 0141
ENCODING 321
SWIDTH 540 0
DWIDTH 9 0
BBX 9 9 0 0
BITMAP
4000
4000
4800
3000
C000
4000
4000
4000
3F80
ENDCHAR
STARTCHAR 0142
ENCODING 322
SWIDTH 240 0
DWIDTH 4 0
BBX 4 8 0 0
BITMAP
40
40
40
30
C0
40
40
40
ENDCHAR
STARTCHAR 0143
ENCODING 323
SWIDTH 720 0
DWIDTH 12 0
BBX 10 13 1 0
BITMAP
0400
0800
0000
0000
8040
C040
A040
9040
8840
8640
8140
80C0
8040
ENDCHAR
STARTCHAR 0144
ENCODING 324
SWIDTH 600 0
DWIDTH 10 0
BBX 8 10 1 0
BITMAP
10
20
00
00
FE
82
82
81
81
82
ENDCHAR
STARTCHAR 0152
ENCODING 338
SWIDTH 1140 0
DWIDTH 19 0
BBX 17 9 1 0
BITMAP
3FFF80
404000
804000
804000
807F80
804000
804000
404000
3FFF80
ENDCHAR
STARTCHAR 0153
ENCODING 339
SWIDTH 900 0
DWIDTH 15 0
BBX 13 6 1 0
BITMAP
7FF8
8208
83F8
8200
8200
7FF8
ENDCHAR
STARTCHAR 0154
ENCODING 340
SWIDTH 600 0
DWIDTH 10 0
BBX 8 13 1 0
BITMAP
0C
10
00
00
FE
81
81
81
83
FC
84
82
81
ENDCHAR
STARTCHAR 0156
ENCODING 342
SWIDTH 600 0
DWIDTH 10 0
BBX 8 11 1 -3
BITMAP
FE
81
81
81
83
FC
84
82
81
00
08
ENDCHAR
STARTCHAR 0157
ENCODING 343
SWIDTH 420 0
DWIDTH 7 0
BBX 5 9 1 -3
BITMAP
F8
80
80
80
80
80
00
10
20
ENDCHAR
STARTCHAR 0158
ENCODING 344
SWIDTH 600 0
DWIDTH 10 0
BBX 8 13 1 0
BITMAP
04
18
00
00
FE
81
81
81
83
FC
84
82
81
ENDCHAR
STARTCHAR 0159
ENCODING 345
SWIDTH 420 0
DWIDTH 7 0
BBX 5 10 1 0
BITMAP
50
30
00
00
F8
80
80
80
80
80
ENDCHAR
STARTCHAR 015A
ENCODING 346
SWIDTH 780 0
DWIDTH 13 0
BBX 11 13 1 0
BITMAP
0600
0800
0000
0000
7FC0
8000
8000
C000
3F80
0040
0020
0040
FF80
ENDCHAR
STARTCHAR 015B
ENCODING 347
SWIDTH 600 0
DWIDTH 10 0
BBX 8 10 1 0
BITMAP
08
10
00
00
FE
80
C0
3E
01
7E
ENDCHAR
STARTCHAR 0160
ENCODING 352
SWIDTH 780 0
DWIDTH 13 0
BBX 11 13 1 0
BITMAP
0200
0C00
0000
0000
7FC0
8000
8000
C000
3F80
0040
0020
0040
FF80
ENDCHAR
STARTCHAR 0161
ENCODING 353
SWIDTH 600 0
DWIDTH 10 0
BBX 8 10 1 0
BITMAP
28
10
00
00
FE
80
C0
3E
01
7E
ENDCHAR
STARTCHAR 0162
ENCODING 354
SWIDTH 660 0
DWIDTH 11 0
BBX 9 11 1 -3
BITMAP
FF80
0800
0800
0800
0800
0800
0800
0800
0800
0000
0800
ENDCHAR
STARTCHAR 0163
ENCODING 355
SWIDTH 360 0
DWIDTH 6 0
BBX 5 10 1 -2
BITMAP
80
80
F0
80
80
80
80
58
20
20
ENDCHAR
STARTCHAR 0179
ENCODING 377
SWIDTH 660 0
DWIDTH 11 0
BBX 10 13 0 0
BITMAP
0200
0C00
0000
0000
7FC0
0080
0100
0200
0400
0800
1000
6000
FFC0
ENDCHAR
STARTCHAR 017A
ENCODING 378
SWIDTH 480 0
DWIDTH 8 0
BBX 6 10 1 0
BITMAP
10
20
00
00
FC
08
10
20
40
FC
ENDCHAR
STARTCHAR 017B
ENCODING 379
SWIDTH 660 0
DWIDTH 11 0
BBX 10 12 0 0
BITMAP
0400
0000
0000
7FC0
0080
0100
0200
0400
0800
1000
6000
FFC0
ENDCHAR
STARTCHAR 017C
ENCODING 380
SWIDTH 480 0
DWIDTH 8 0
BBX 6 9 1 0
BITMAP
10
00
00
FC
08
10
20
40
FC
ENDCHAR
STARTCHAR 017D
ENCODING 381
SWIDTH 660 0
DWIDTH 11 0
BBX 10 13 0 0
BITMAP
0A00
0C00
0000
0000
7FC0
0080
0100
0200
0400
0800
1000
6000
FFC0
ENDCHAR
STARTCHAR 017E
ENCODING 382
SWIDTH 480 0
DWIDTH 8 0
BBX 6 10 1 0
BITMAP
30
10
00
00
FC
08
10
20
40
FC
ENDCHAR
STARTCHAR 0200
ENCODING 512
SWIDTH 660 0
DWIDTH 11 0
BBX 10 13 0 0
BITMAP
3800
1400
0A00
0000
0400
0A00
0A00
1100
2100
2080
5F80
4040
8040
ENDCHAR
STARTCHAR 0201
ENCODING 513
SWIDTH 600 0
DWIDTH 10 0
BBX 9 10 0 1
BITMAP
2800
1400
3C80
4380
8080
8080
8080
8080
4180
3E80
ENDCHAR
STARTCHAR 0202
ENCODING 514
SWIDTH 660 0
DWIDTH 11 0
BBX 10 12 0 0
BITMAP
0E00
0000
0000
0400
0A00
0A00
1100
2100
2080
5F80
4040
8040
ENDCHAR
STARTCHAR 0203
ENCODING 515
SWIDTH 600 0
DWIDTH 10 0
BBX 9 10 0 0
BITMAP
0800
1000
3C80
4380
8080
8080
8080
8080
4180
3E80
ENDCHAR
STARTCHAR 0204
ENCODING 516
SWIDTH 660 0
DWIDTH 11 0
BBX 8 13 1 0
BITMAP
70
28
14
00
FF
80
80
80
FF
80
80
80
FF
ENDCHAR
STARTCHAR 0205
ENCODING 517
SWIDTH 840 0
DWIDTH 14 0
BBX 7 11 4 0
BITMAP
08
14
0A
18
64
84
88
90
A0
42
3C
ENDCHAR
STARTCHAR 0206
ENCODING 518
SWIDTH 660 0
DWIDTH 11 0
BBX 8 12 1 0
BITMAP
1C
00
00
FF
80
80
80
FF
80
80
80
FF
ENDCHAR
STARTCHAR 0207
ENCODING 519
SWIDTH 840 0
DWIDTH 14 0
BBX 7 10 4 0
BITMAP
04
0A
18
64
84
88
90
A0
42
3C
ENDCHAR
STARTCHAR 0208
ENCODING 520
SWIDTH 480 0
DWIDTH 8 0
BBX 7 13 1 0
BITMAP
A0
50
28
00
FE
10
10
10
10
10
10
10
FE
ENDCHAR
STARTCHAR 0209
ENCODING 521
SWIDTH 180 0
DWIDTH 3 0
BBX 5 11 -2 0
BITMAP
80
E0
50
28
00
10
10
10
10
10
10
ENDCHAR
STARTCHAR 020A
ENCODING 522
SWIDTH 480 0
DWIDTH 8 0
BBX 7 12 1 0
BITMAP
78
00
00
FE
10
10
10
10
10
10
10
FE
ENDCHAR
STARTCHAR 020B
ENCODING 523
SWIDTH 180 0
DWIDTH 3 0
BBX 2 10 0 0
BITMAP
40
80
00
00
40
40
40
40
40
40
ENDCHAR
STARTCHAR 020C
ENCODING 524
SWIDTH 840 0
DWIDTH 14 0
BBX 12 13 1 0
BITMAP
1400
0A00
0000
0000
3FC0
4020
8010
8010
8010
8010
8010
4020
3FC0
ENDCHAR
STARTCHAR 020D
ENCODING 525
SWIDTH 600 0
DWIDTH 10 0
BBX 8 10 1 1
BITMAP
50
28
10
00
7E
81
81
81
81
7E
ENDCHAR
STARTCHAR 020E
ENCODING 526
SWIDTH 840 0
DWIDTH 14 0
BBX 12 12 1 0
BITMAP
0E00
0000
0000
3FC0
4020
8010
8010
8010
8010
8010
4020
3FC0
ENDCHAR
STARTCHAR 020F
ENCODING 527
SWIDTH 600 0
DWIDTH 10 0
BBX 8 10 1 0
BITMAP
18
04
00
00
7E
81
81
81
81
7E
ENDCHAR
STARTCHAR 0210
ENCODING 528
SWIDTH 600 0
DWIDTH 10 0
BBX 8 13 1 0
BITMAP
50
28
14
00
FE
81
81
81
83
FC
84
82
81
ENDCHAR
STARTCHAR 0211
ENCODING 529
SWIDTH 420 0
DWIDTH 7 0
BBX 5 10 1 1
BITMAP
A0
50
00
00
F8
80
80
80
80
80
ENDCHAR
STARTCHAR 0212
ENCODING 530
SWIDTH 600 0
DWIDTH 10 0
BBX 8 12 1 0
BITMAP
3C
00
00
FE
81
81
81
83
FC
84
82
81
ENDCHAR
STARTCHAR 0213
ENCODING 531
SWIDTH 420 0
DWIDTH 7 0
BBX 5 10 1 0
BITMAP
30
40
00
00
F8
80
80
80
80
80
ENDCHAR
STARTCHAR 0214
ENCODING 532
SWIDTH 780 0
DWIDTH 13 0
BBX 11 13 1 0
BITMAP
3800
1400
0A00
0000
8020
8020
8020
8020
8020
8020
8040
4040
3F80
ENDCHAR
STARTCHAR 0215
ENCODING 533
SWIDTH 600 0
DWIDTH 10 0
BBX 7 10 1 1
BITMAP
50
28
00
00
82
82
82
82
82
7E
ENDCHAR
STARTCHAR 0216
ENCODING 534
SWIDTH 780 0
DWIDTH 13 0
BBX 11 12 1 0
BITMAP
0E00
0000
0000
8020
8020
8020
8020
8020
8020
8040
4040
3F80
ENDCHAR
STARTCHAR 0217
ENCODING 535
SWIDTH 600 0
DWIDTH 10 0
BBX 7 10 1 0
BITMAP
10
20
00
00
82
82
82
82
82
7E
ENDCHAR
STARTCHAR 0218
ENCODING 536
SWIDTH 780 0
DWIDTH 13 0
BBX 11 11 1 -3
BITMAP
7FC0
8000
8000
C000
3F80
0040
0020
0040
F080
0F00
0400
ENDCHAR
STARTCHAR 0219
ENCODING 537
SWIDTH 600 0
DWIDTH 10 0
BBX 8 9 1 -3
BITMAP
FE
80
C0
3E
01
46
38
10
10
ENDCHAR
STARTCHAR 021A
ENCODING 538
SWIDTH 660 0
DWIDTH 11 0
BBX 9 11 1 -3
BITMAP
FF80
0800
0800
0800
0800
0800
0800
0800
0800
0000
0800
ENDCHAR
STARTCHAR 021B
ENCODING 539
SWIDTH 360 0
DWIDTH 6 0
BBX 5 10 1 -2
BITMAP
80
80
F0
80
80
80
80
58
20
20
ENDCHAR
STARTCHAR 0237
ENCODING 567
SWIDTH 240 0
DWIDTH 4 0
BBX 3 8 0 -2
BITMAP
20
20
20
20
20
20
20
C0
ENDCHAR
STARTCHAR 02C6
ENCODING 710
SWIDTH 240 0
DWIDTH 4 0
BBX 3 2 0 7
BITMAP
60
80
ENDCHAR
STARTCHAR 02C7
ENCODING 711
SWIDTH 240 0
DWIDTH 4 0
BBX 3 2 1 8
BITMAP
A0
40
ENDCHAR
STARTCHAR 02D8
ENCODING 728
SWIDTH 300 0
DWIDTH 5 0
BBX 3 2 1 8
BITMAP
80
60
ENDCHAR
STARTCHAR 02D9
ENCODING 729
SWIDTH 120 0
DWIDTH 2 0
BBX 1 1 1 8
BITMAP
80
ENDCHAR
STARTCHAR 02DA
ENCODING 730
SWIDTH 180 0
DWIDTH 3 0
BBX 1 2 1 7
BITMAP
80
80
ENDCHAR
STARTCHAR 02DB
ENCODING 731
SWIDTH 120 0
DWIDTH 2 0
BBX 1 1 0 -1
BITMAP
80
ENDCHAR
STARTCHAR 02DC
ENCODING 732
SWIDTH 360 0
DWIDTH 6 0
BBX 4 2 2 7
BITMAP
90
60
ENDCHAR
STARTCHAR 02DD
ENCODING 733
SWIDTH 180 0
DWIDTH 3 0
BBX 4 3 2 8
BITMAP
20
50
A0
ENDCHAR
STARTCHAR 0307
ENCODING 775
SWIDTH 120 0
DWIDTH 2 0
BBX 1 1 1 8
BITMAP
80
ENDCHAR
STARTCHAR 030F
ENCODING 783
SWIDTH 180 0
DWIDTH 3 0
BBX 4 3 -1 8
BITMAP
40
A0
50
ENDCHAR
STARTCHAR 0311
ENCODING 785
SWIDTH 300 0
DWIDTH 5 0
BBX 3 2 1 8
BITMAP
40
A0
ENDCHAR
STARTCHAR 0326
ENCODING 806
SWIDTH 180 0
DWIDTH 3 0
BBX 1 2 1 -3
BITMAP
80
80
ENDCHAR
STARTCHAR 2013
ENCODING 8211
SWIDTH 360 0
DWIDTH 6 0
BBX 3 1 1 4
BITMAP
E0
ENDCHAR
STARTCHAR 2014
ENCODING 8212
SWIDTH 720 0
DWIDTH 12 0
BBX 10 1 1 1
BITMAP
FFC0
ENDCHAR
STARTCHAR 2018
ENCODING 8216
SWIDTH 180 0
DWIDTH 3 0
BBX 1 2 1 7
BITMAP
80
80
ENDCHAR
STARTCHAR 2019
ENCODING 8217
SWIDTH 180 0
DWIDTH 3 0
BBX 1 2 1 7
BITMAP
80
80
ENDCHAR
STARTCHAR 201A
ENCODING 8218
SWIDTH 120 0
DWIDTH 2 0
BBX 1 2 1 0
BITMAP
80
80
ENDCHAR
STARTCHAR 201C
ENCODING 8220
SWIDTH 240 0
DWIDTH 4 0
BBX 2 2 1 7
BITMAP
C0
C0
ENDCHAR
STARTCHAR 201D
ENCODING 8221
SWIDTH 240 0
DWIDTH 4 0
BBX 3 2 1 7
BITMAP
E0
C0
ENDCHAR
STARTCHAR 201E
ENCODING 8222
SWIDTH 240 0
DWIDTH 4 0
BBX 2 2 1 0
BITMAP
C0
C0
ENDCHAR
STARTCHAR 2022
ENCODING 8226
SWIDTH 420 0
DWIDTH 7 0
BBX 5 5 1 1
BITMAP
70
F8
F8
F8
F8
ENDCHAR
STARTCHAR 2039
ENCODING 8249
SWIDTH 240 0
DWIDTH 4 0
BBX 3 5 0 0
BITMAP
20
40
80
40
20
ENDCHAR
STARTCHAR 203A
ENCODING 8250
SWIDTH 240 0
DWIDTH 4 0
BBX 2 4 1 0
BITMAP
80
40
40
80
ENDCHAR
STARTCHAR 2044
ENCODING 8260
SWIDTH 240 0
DWIDTH 4 0
BBX 4 9 0 2
BITMAP
10
20
20
20
40
40
80
80
80
ENDCHAR
STARTCHAR 2074
ENCODING 8308
SWIDTH 540 0
DWIDTH 9 0
BBX 6 6 2 0
BITMAP
90
90
90
FC
10
10
ENDCHAR
STARTCHAR 20AC
ENCODING 8364
SWIDTH 540 0
DWIDTH 9 0
BBX 8 9 1 0
BITMAP
3E
42
81
80
F0
F0
80
42
3C
ENDCHAR
STARTCHAR 2122
ENCODING 8482
SWIDTH 540 0
DWIDTH 9 0
BBX 7 5 1 4
BITMAP
EA
4A
4E
4A
48
ENDCHAR
STARTCHAR 2212
ENCODING 8722
SWIDTH 0 0
DWIDTH 0 0
BBX 0 0 0 0
BITMAP
ENDCHAR
ENDFONT
